<svg width="9" height="6" viewBox="0 0 9 6" fill="none" xmlns="http://www.w3.org/2000/svg">
<path d="M4.17365 5.25309C4.75982 5.25309 5.32834 5.44699 5.78467 5.80257C5.92407 5.91455 6.1038 5.96842 6.2843 5.95234C6.37368 5.94437 6.46056 5.91947 6.53998 5.87906C6.6194 5.83865 6.68981 5.78351 6.74718 5.7168C6.86305 5.58207 6.9188 5.40838 6.90216 5.23393C6.88551 5.05948 6.79785 4.89857 6.65844 4.78658C5.96124 4.2241 5.08185 3.91599 4.17365 3.91599C3.26545 3.91599 2.38606 4.2241 1.68886 4.78658C1.54945 4.89857 1.46179 5.05948 1.44515 5.23393C1.4285 5.40838 1.48425 5.58207 1.60012 5.7168C1.71599 5.85153 1.88249 5.93625 2.063 5.95234C2.2435 5.96842 2.42323 5.91455 2.56263 5.80257C3.01896 5.44699 3.58748 5.25309 4.17365 5.25309Z" fill="#6A84E1"/>
<path d="M2.75036 0.184756C2.57001 0.184756 2.397 0.253725 2.2691 0.3766C2.20564 0.438435 2.13014 0.487515 2.04695 0.521008C1.96377 0.554502 1.87454 0.571746 1.78443 0.571746C1.69431 0.571746 1.60509 0.554502 1.5219 0.521008C1.43872 0.487515 1.36322 0.438435 1.29976 0.3766C1.23856 0.307539 1.16326 0.251448 1.07856 0.211849C0.993873 0.17225 0.901627 0.149997 0.807615 0.146488C0.713603 0.142978 0.619856 0.158288 0.532257 0.191455C0.444658 0.224623 0.365098 0.274932 0.298572 0.339226C0.232046 0.40352 0.17999 0.480409 0.145671 0.565069C0.111351 0.649728 0.0955102 0.74033 0.0991415 0.831187C0.102773 0.922045 0.125798 1.01119 0.166772 1.09304C0.207746 1.17489 0.265784 1.24767 0.337244 1.30682C0.727901 1.66505 1.2459 1.86476 1.78443 1.86476C2.32296 1.86476 2.84096 1.66505 3.23161 1.30682C3.35876 1.18321 3.43012 1.016 3.43012 0.841707C3.43012 0.667417 3.35876 0.500208 3.23161 0.3766C3.10371 0.253725 2.9307 0.184756 2.75036 0.184756Z" fill="#6A84E1"/>
<path d="M6.56287 1.826C7.1014 1.826 7.6194 1.62629 8.01006 1.26806C8.1372 1.14445 8.20856 0.977238 8.20856 0.802947C8.20856 0.628657 8.1372 0.461448 8.01006 0.33784C7.88216 0.214965 7.70914 0.145996 7.5288 0.145996C7.34846 0.145996 7.17544 0.214965 7.04754 0.33784C6.98408 0.399675 6.90858 0.448755 6.8254 0.482248C6.74221 0.515742 6.65299 0.532986 6.56287 0.532986C6.47276 0.532986 6.38353 0.515742 6.30035 0.482248C6.21716 0.448755 6.14166 0.399675 6.0782 0.33784C5.94761 0.229759 5.77963 0.173282 5.60783 0.179695C5.43603 0.186109 5.27306 0.25494 5.15148 0.372434C5.02991 0.489928 4.95869 0.64743 4.95205 0.813468C4.94541 0.979505 5.00385 1.14185 5.11569 1.26806C5.50634 1.62629 6.02434 1.826 6.56287 1.826Z" fill="#6A84E1"/>
</svg>
