<svg width="14" height="14" viewBox="0 0 14 14" fill="none" xmlns="http://www.w3.org/2000/svg">
<path d="M7.17352 0C5.82339 0 4.50359 0.386923 3.381 1.11184C2.25842 1.83676 1.38347 2.86711 0.866796 4.07261C0.350126 5.2781 0.214941 6.60459 0.478337 7.88434C0.741733 9.16408 1.39188 10.3396 2.34656 11.2623C3.30124 12.1849 4.51758 12.8132 5.84176 13.0678C7.16594 13.3223 8.53849 13.1917 9.78585 12.6924C11.0332 12.193 12.0993 11.3474 12.8494 10.2625C13.5995 9.17761 13.9999 7.90209 13.9999 6.59727C13.9999 5.73091 13.8233 4.87302 13.4802 4.07261C13.1372 3.27219 12.6344 2.54491 12.0005 1.9323C11.3666 1.31968 10.6141 0.833732 9.78585 0.502188C8.95764 0.170644 8.06997 0 7.17352 0Z" fill="white"/>
</svg>
