<svg width="6" height="4" viewBox="0 0 6 4" fill="none" xmlns="http://www.w3.org/2000/svg">
<path d="M4.09634 0.357063L2.48878 2.28516L1.92601 1.61045C1.87339 1.54731 1.80885 1.49515 1.73608 1.45695C1.66331 1.41875 1.58372 1.39526 1.50187 1.38782C1.42002 1.38038 1.3375 1.38913 1.25903 1.41358C1.18056 1.43803 1.10767 1.47769 1.04453 1.53031C0.981394 1.58293 0.929235 1.64746 0.891037 1.72024C0.852838 1.79301 0.829348 1.8726 0.821906 1.95445C0.814465 2.0363 0.823219 2.11882 0.847667 2.19729C0.872116 2.27576 0.911781 2.34864 0.964398 2.41179L2.00797 3.66456C2.06663 3.73514 2.14009 3.79195 2.22316 3.83096C2.30623 3.86997 2.39686 3.89022 2.48863 3.89028C2.5804 3.89034 2.67106 3.8702 2.75418 3.8313C2.8373 3.7924 2.91084 3.73568 2.96958 3.66518L5.05795 1.15962C5.11103 1.09653 5.15113 1.02358 5.17595 0.944954C5.20076 0.866329 5.20981 0.783576 5.20257 0.701445C5.19533 0.619315 5.17194 0.539422 5.13375 0.466352C5.09556 0.393282 5.04331 0.328472 4.98001 0.275642C4.91671 0.222812 4.8436 0.183001 4.76488 0.158494C4.68616 0.133986 4.60337 0.125265 4.52127 0.13283C4.43916 0.140394 4.35936 0.164097 4.28645 0.202576C4.21353 0.241056 4.14892 0.293556 4.09634 0.357063Z" fill="#666EE6"/>
</svg>
