<svg width="11" height="11" viewBox="0 0 11 11" fill="none" xmlns="http://www.w3.org/2000/svg">
<path d="M5.01111 0C4.02001 0 3.05116 0.293897 2.22709 0.844525C1.40302 1.39515 0.760729 2.17778 0.38145 3.09344C0.00217123 4.0091 -0.0970655 5.01667 0.0962893 5.98873C0.289644 6.96079 0.766906 7.85369 1.46772 8.5545C2.16854 9.25532 3.06143 9.73258 4.03349 9.92594C5.00555 10.1193 6.01312 10.0201 6.92878 9.64077C7.84444 9.2615 8.62707 8.61921 9.1777 7.79514C9.72833 6.97106 10.0222 6.00222 10.0222 5.01111C10.0208 3.68252 9.4924 2.40874 8.55294 1.46928C7.61348 0.529824 6.33971 0.00141491 5.01111 0Z" fill="url(#paint0_linear_197_232)"/>
<path d="M6.09634 3.35706L4.48878 5.28516L3.92601 4.61045C3.87339 4.54731 3.80885 4.49515 3.73608 4.45695C3.66331 4.41875 3.58372 4.39526 3.50187 4.38782C3.42002 4.38038 3.3375 4.38913 3.25903 4.41358C3.18056 4.43803 3.10767 4.47769 3.04453 4.53031C2.98139 4.58293 2.92924 4.64746 2.89104 4.72024C2.85284 4.79301 2.82935 4.8726 2.82191 4.95445C2.81447 5.0363 2.82322 5.11882 2.84767 5.19729C2.87212 5.27576 2.91178 5.34864 2.9644 5.41179L4.00797 6.66456C4.06663 6.73514 4.14009 6.79195 4.22316 6.83096C4.30623 6.86997 4.39686 6.89022 4.48863 6.89028C4.5804 6.89034 4.67106 6.8702 4.75418 6.8313C4.8373 6.7924 4.91084 6.73568 4.96958 6.66518L7.05795 4.15962C7.11103 4.09653 7.15113 4.02358 7.17595 3.94495C7.20076 3.86633 7.20981 3.78358 7.20257 3.70145C7.19533 3.61931 7.17194 3.53942 7.13375 3.46635C7.09556 3.39328 7.04331 3.32847 6.98001 3.27564C6.91671 3.22281 6.8436 3.183 6.76488 3.15849C6.68616 3.13399 6.60337 3.12526 6.52127 3.13283C6.43916 3.14039 6.35936 3.1641 6.28645 3.20258C6.21353 3.24106 6.14892 3.29356 6.09634 3.35706Z" fill="#6980E2"/>
<defs>
<linearGradient id="paint0_linear_197_232" x1="0.333252" y1="1" x2="8.33325" y2="9.5" gradientUnits="userSpaceOnUse">
<stop stop-color="white"/>
<stop offset="1" stop-color="white"/>
</linearGradient>
</defs>
</svg>
