<svg width="14" height="14" viewBox="0 0 14 14" fill="none" xmlns="http://www.w3.org/2000/svg">
<path d="M6.82635 0.500092C5.47623 0.500092 4.15642 0.887015 3.03383 1.61193C1.91125 2.33685 1.0363 3.3672 0.519628 4.5727C0.00295771 5.77819 -0.132227 7.10468 0.131169 8.38443C0.394565 9.66418 1.04471 10.8397 1.99939 11.7623C2.95408 12.685 4.17041 13.3133 5.4946 13.5679C6.81878 13.8224 8.19133 13.6918 9.43868 13.1925C10.686 12.6931 11.7522 11.8475 12.5022 10.7626C13.2523 9.6777 13.6527 8.40218 13.6527 7.09737C13.6527 6.231 13.4761 5.37312 13.1331 4.5727C12.79 3.77228 12.2872 3.045 11.6533 2.43239C11.0194 1.81977 10.2669 1.33382 9.43868 1.00228C8.61047 0.670735 7.7228 0.500092 6.82635 0.500092Z" fill="white"/>
<path d="M6.82635 0.500092C5.47623 0.500092 4.15642 0.887015 3.03383 1.61193C1.91125 2.33685 1.0363 3.3672 0.519628 4.5727C0.00295771 5.77819 -0.132227 7.10468 0.131169 8.38443C0.394565 9.66418 1.04471 10.8397 1.99939 11.7623C2.95408 12.685 4.17041 13.3133 5.4946 13.5679C6.81878 13.8224 8.19133 13.6918 9.43868 13.1925C10.686 12.6931 11.7522 11.8475 12.5022 10.7626C13.2523 9.6777 13.6527 8.40218 13.6527 7.09737C13.6527 6.231 13.4761 5.37312 13.1331 4.5727C12.79 3.77228 12.2872 3.045 11.6533 2.43239C11.0194 1.81977 10.2669 1.33382 9.43868 1.00228C8.61047 0.670735 7.7228 0.500092 6.82635 0.500092Z" fill="white"/>
</svg>
