<svg width="9" height="7" viewBox="0 0 9 7" fill="none" xmlns="http://www.w3.org/2000/svg">
<path d="M4.82648 5.118C5.41266 5.118 5.98117 4.92409 6.4375 4.56852C6.57691 4.45654 6.75663 4.40266 6.93714 4.41875C7.02651 4.42671 7.11339 4.45161 7.19281 4.49203C7.27224 4.53244 7.34264 4.58757 7.40002 4.65428C7.51588 4.78901 7.57163 4.96271 7.55499 5.13716C7.53835 5.3116 7.45068 5.47252 7.31127 5.5845C6.61407 6.14699 5.73469 6.4551 4.82648 6.4551C3.91828 6.4551 3.03889 6.14699 2.34169 5.5845C2.20229 5.47252 2.11462 5.3116 2.09798 5.13716C2.08134 4.96271 2.13708 4.78901 2.25295 4.65428C2.36882 4.51956 2.53532 4.43483 2.71583 4.41875C2.89633 4.40266 3.07606 4.45654 3.21546 4.56852C3.67179 4.92409 4.24031 5.118 4.82648 5.118Z" fill="#6B8ADF"/>
<path d="M3.40319 2.32597C3.22285 2.32597 3.04983 2.257 2.92193 2.13413C2.85847 2.07229 2.78297 2.02321 2.69979 1.98972C2.6166 1.95622 2.52738 1.93898 2.43726 1.93898C2.34715 1.93898 2.25792 1.95622 2.17474 1.98972C2.09155 2.02321 2.01605 2.07229 1.95259 2.13413C1.89139 2.20319 1.81609 2.25928 1.7314 2.29888C1.64671 2.33848 1.55446 2.36073 1.46045 2.36424C1.36644 2.36775 1.27269 2.35244 1.18509 2.31927C1.09749 2.2861 1.01793 2.23579 0.951404 2.1715C0.884878 2.10721 0.832822 2.03032 0.798503 1.94566C0.764183 1.861 0.748342 1.7704 0.751974 1.67954C0.755605 1.58868 0.77863 1.49953 0.819604 1.41768C0.860578 1.33583 0.918616 1.26305 0.990076 1.20391C1.38073 0.845674 1.89873 0.645966 2.43726 0.645966C2.97579 0.645966 3.49379 0.845674 3.88445 1.20391C4.01159 1.32752 4.08295 1.49473 4.08295 1.66902C4.08295 1.84331 4.01159 2.01052 3.88445 2.13413C3.75655 2.257 3.58353 2.32597 3.40319 2.32597Z" fill="#6B8ADF"/>
<path d="M7.2157 0.645966C7.75423 0.645966 8.27223 0.845674 8.66289 1.20391C8.79003 1.32752 8.86139 1.49473 8.86139 1.66902C8.86139 1.84331 8.79003 2.01052 8.66289 2.13413C8.53499 2.257 8.36198 2.32597 8.18163 2.32597C8.00129 2.32597 7.82827 2.257 7.70037 2.13413C7.63691 2.07229 7.56141 2.02321 7.47823 1.98972C7.39504 1.95622 7.30582 1.93898 7.2157 1.93898C7.12559 1.93898 7.03636 1.95622 6.95318 1.98972C6.86999 2.02321 6.79449 2.07229 6.73103 2.13413C6.60044 2.24221 6.43246 2.29868 6.26066 2.29227C6.08886 2.28586 5.92589 2.21703 5.80431 2.09953C5.68274 1.98204 5.61152 1.82454 5.60488 1.6585C5.59825 1.49246 5.65669 1.33012 5.76852 1.20391C6.15918 0.845674 6.67717 0.645966 7.2157 0.645966Z" fill="#6B8ADF"/>
</svg>
